<svg width="177" height="174" fill="none" xmlns="http://www.w3.org/2000/svg"><path d="M13.631 173.771c-3.654 0-6.801-1.32-9.442-3.96-2.64-2.641-3.96-5.788-3.96-9.442V78.746c0-2.734.745-5.255 2.234-7.563 1.49-2.308 3.46-3.974 5.914-4.999L46.58 50.103c2.263-.87 4.396-.703 6.397.5 2.001 1.203 3.002 3.038 3.002 5.504v8.398L93.27 49.46c2.264-.87 4.358-.636 6.282.7 1.923 1.337 2.885 3.182 2.885 5.536v15.867h74.334v88.806c0 3.654-1.32 6.801-3.961 9.442-2.64 2.64-5.787 3.96-9.441 3.96H13.631zm0-10.543h149.738c.834 0 1.519-.268 2.055-.804.536-.536.804-1.221.804-2.055v-78.23H91.895v-20.78L45.437 79.944V61.681L12.469 76.298c-.536.238-.953.58-1.25 1.027-.298.447-.447.968-.447 1.564v81.48c0 .834.268 1.519.804 2.055.536.536 1.221.804 2.055.804zm68.347-24.122h13.044v-32.878H81.978v32.878zm-37.167 0h13.044v-32.878H44.811v32.878zm74.334 0h13.044v-32.878h-13.044v32.878zm57.626-67.543h-34.308l8.684-65.97c.251-1.347.893-2.481 1.928-3.405 1.034-.923 2.22-1.385 3.558-1.385h6.861c1.269 0 2.363.432 3.283 1.296.921.864 1.506 1.939 1.756 3.225l8.238 66.239zm-163.14 91.665h-2.86 155.457H13.631z" fill="#1C1B1F"/></svg>