<svg width="183" height="176" fill="none" xmlns="http://www.w3.org/2000/svg"><path d="M76.95 175.562H26.73c-2.29 0-4.21-.774-5.76-2.324-1.55-1.549-2.324-3.469-2.324-5.759V85.896H4.25c-1.842 0-3.071-.834-3.688-2.5-.617-1.668-.245-3.078 1.116-4.232L86.111 2.998C87.585 1.648 89.395.972 91.54.972s3.927.675 5.35 2.026l46.773 41.643V18.539c0-1.064.409-1.994 1.228-2.792.819-.797 1.775-1.196 2.867-1.196h9.591c1.064 0 1.994.399 2.792 1.196.797.798 1.196 1.728 1.196 2.792v42.31l20.002 18.3c1.351 1.236 1.718 2.67 1.101 4.3-.616 1.631-1.846 2.447-3.687 2.447h-14.398v81.583c0 2.29-.775 4.21-2.324 5.759-1.549 1.55-3.469 2.324-5.759 2.324H106.05v-62.939H76.951v62.939zm-45.587-12.717h32.87V99.907h54.533v62.938h32.871V69.45L91.5 14.917 31.363 69.45v93.395zm37.828-95.81h44.726c0-5.804-2.256-10.572-6.768-14.3-4.513-3.73-9.729-5.594-15.649-5.594s-11.118 1.847-15.595 5.54c-4.476 3.693-6.714 8.478-6.714 14.355z" fill="#1C1B1F"/></svg>