<svg width="20" height="20" fill="none" xmlns="http://www.w3.org/2000/svg"><mask id="a" style="mask-type:alpha" maskUnits="userSpaceOnUse" x="0" y="0" width="20" height="20"><path fill="#D9D9D9" d="M0 0h20v20H0z"/></mask><g mask="url(#a)"><path d="M9.996 12.27a.53.53 0 01-.217-.045.626.626 0 01-.188-.132L5.816 8.318c-.082-.083-.123-.163-.121-.242.001-.078.046-.162.135-.25.089-.09.17-.134.243-.134.073 0 .154.045.243.133L10 11.53l3.705-3.705c.078-.078.156-.116.235-.114.078.001.162.046.25.135.09.089.134.17.134.243 0 .073-.047.156-.14.249l-3.775 3.755a.738.738 0 01-.196.132.53.53 0 01-.217.044z" fill="#fff" fill-opacity=".9"/></g></svg>