<svg width="197" height="178" fill="none" xmlns="http://www.w3.org/2000/svg"><path d="M.95 165.659V11.836c0-3.202 1.146-5.95 3.439-8.243C6.68 1.3 9.429.153 12.632.153h70.973c3.203 0 5.95 1.147 8.243 3.44s3.439 5.04 3.439 8.243V41.53h89.081c3.203 0 5.95 1.147 8.243 3.44 2.293 2.292 3.439 5.04 3.439 8.242V165.66c0 3.203-1.146 5.95-3.439 8.243s-5.04 3.439-8.243 3.439H12.632c-3.203 0-5.95-1.146-8.243-3.439s-3.44-5.04-3.44-8.243zm11.487.194h29.986v-29.985H12.437v29.985zm0-41.473h29.986V94.491H12.437v29.889zm0-41.376h29.986V53.018H12.437v29.986zm0-41.474h29.986V11.642H12.437V41.53zm41.474 124.323h29.888v-29.985H53.911v29.985zm0-41.473h29.888V94.491H53.911v29.889zm0-41.376h29.888V53.018H53.911v29.986zm0-41.474h29.888V11.642H53.911V41.53zm41.376 124.323h89.275V53.018H95.287v29.986h22.197V94.49H95.287v29.889h22.197v11.488H95.287v29.985zm49.068-71.362V83.004h11.487V94.49h-11.487zm0 41.377V124.38h11.487v11.488h-11.487z" fill="#1C1B1F"/></svg>