<svg width="177" height="174" viewBox="0 0 177 174" fill="none" xmlns="http://www.w3.org/2000/svg">
<path d="M13.631 173.771C9.97687 173.771 6.82971 172.451 4.18948 169.811C1.54941 167.17 0.22937 164.023 0.22937 160.369V78.7459C0.22937 76.012 0.973942 73.491 2.46309 71.183C3.95208 68.8751 5.92354 67.2088 8.37747 66.1843L46.5799 50.1029C48.8432 49.2332 50.9756 49.4 52.977 50.6031C54.9783 51.8063 55.9789 53.6409 55.9789 56.1068V64.505L93.2705 49.4595C95.5338 48.59 97.6275 48.8235 99.5515 50.1601C101.475 51.4966 102.437 53.3417 102.437 55.6956V71.5628H176.771V160.369C176.771 164.023 175.451 167.17 172.81 169.811C170.17 172.451 167.023 173.771 163.369 173.771H13.631ZM13.631 163.228H163.369C164.203 163.228 164.888 162.96 165.424 162.424C165.96 161.888 166.228 161.203 166.228 160.369V82.1388H91.8949V61.3598L45.4366 79.9431V61.6813L12.4693 76.2978C11.9332 76.536 11.5162 76.8784 11.2184 77.3252C10.9206 77.772 10.7717 78.2932 10.7717 78.8888V160.369C10.7717 161.203 11.0398 161.888 11.5759 162.424C12.112 162.96 12.797 163.228 13.631 163.228ZM81.9779 139.106H95.022V106.228H81.9779V139.106ZM44.8113 139.106H57.8554V106.228H44.8113V139.106ZM119.145 139.106H132.189V106.228H119.145V139.106ZM176.771 71.5628H142.463L151.147 5.59216C151.398 4.2461 152.04 3.11151 153.075 2.18838C154.109 1.2651 155.295 0.803467 156.633 0.803467H163.494C164.763 0.803467 165.857 1.23529 166.777 2.09895C167.698 2.96261 168.283 4.03766 168.533 5.32409L176.771 71.5628ZM13.631 163.228H10.7717H166.228H13.631Z" fill="#1C1B1F"/>
</svg>
