<svg width="183" height="176" viewBox="0 0 183 176" fill="none" xmlns="http://www.w3.org/2000/svg">
<path d="M76.9508 175.562H26.7294C24.4391 175.562 22.5194 174.788 20.9702 173.238C19.4209 171.689 18.6462 169.769 18.6462 167.479V85.8956H4.24854C2.40682 85.8956 1.17764 85.0622 0.560998 83.3953C-0.0556471 81.7283 0.316468 80.3177 1.67735 79.1636L86.1114 2.99793C87.5855 1.64714 89.3946 0.971741 91.5387 0.971741C93.6827 0.971741 95.466 1.64714 96.8888 2.99793L143.662 44.6408V18.5386C143.662 17.4753 144.071 16.5449 144.89 15.7474C145.709 14.9498 146.665 14.5509 147.757 14.5509H157.348C158.412 14.5509 159.342 14.9498 160.14 15.7474C160.937 16.5449 161.336 17.4753 161.336 18.5386V60.8495L181.338 79.149C182.689 80.3848 183.056 81.8181 182.439 83.4491C181.823 85.0801 180.593 85.8956 178.752 85.8956H164.354V167.479C164.354 169.769 163.579 171.689 162.03 173.238C160.481 174.788 158.561 175.562 156.271 175.562H106.049V112.623H76.9508V175.562ZM31.3632 162.845H64.2339V99.9066H118.766V162.845H151.637V69.4499L91.5001 14.9172L31.3632 69.4499V162.845ZM69.1913 67.0359H113.917C113.917 61.2305 111.661 56.4634 107.149 52.7343C102.636 49.0055 97.4203 47.1411 91.5001 47.1411C85.5798 47.1411 80.3816 48.9877 75.9054 52.6808C71.4293 56.3738 69.1913 61.1588 69.1913 67.0359Z" fill="#1C1B1F"/>
</svg>
