<svg width="20" height="20" viewBox="0 0 20 20" fill="none" xmlns="http://www.w3.org/2000/svg">
<mask id="mask0_155_71" style="mask-type:alpha" maskUnits="userSpaceOnUse" x="0" y="0" width="20" height="20">
<rect width="20" height="20" fill="#D9D9D9"/>
</mask>
<g mask="url(#mask0_155_71)">
<path d="M9.99583 12.2692C9.9172 12.2692 9.84481 12.2545 9.77869 12.2252C9.71255 12.1958 9.65011 12.1517 9.59136 12.093L5.81636 8.31796C5.73366 8.23527 5.69311 8.15465 5.69471 8.07613C5.69631 7.9976 5.74145 7.91399 5.83013 7.82531C5.91881 7.73665 5.99974 7.69231 6.07292 7.69231C6.1461 7.69231 6.22703 7.73665 6.31571 7.82531L10 11.5304L13.7051 7.82531C13.7831 7.74733 13.8614 7.70913 13.9399 7.71073C14.0184 7.71234 14.102 7.75748 14.1907 7.84615C14.2794 7.93483 14.3237 8.01576 14.3237 8.08894C14.3237 8.16213 14.277 8.24502 14.1836 8.33761L10.4086 12.093C10.3443 12.1517 10.2791 12.1958 10.213 12.2252C10.1469 12.2545 10.0745 12.2692 9.99583 12.2692Z" fill="white" fill-opacity="0.9"/>
</g>
</svg>
