<svg width="197" height="178" viewBox="0 0 197 178" fill="none" xmlns="http://www.w3.org/2000/svg">
<path d="M0.94986 165.659V11.8364C0.94986 8.63352 2.09618 5.88569 4.38882 3.59289C6.68146 1.30025 9.42921 0.153931 12.6321 0.153931H83.6048C86.8077 0.153931 89.5554 1.30025 91.8481 3.59289C94.1407 5.88569 95.287 8.63352 95.287 11.8364V41.5302H184.368C187.571 41.5302 190.318 42.6766 192.611 44.9692C194.904 47.2618 196.05 50.0096 196.05 53.2125V165.659C196.05 168.862 194.904 171.609 192.611 173.902C190.318 176.195 187.571 177.341 184.368 177.341H12.6321C9.42921 177.341 6.68146 176.195 4.38882 173.902C2.09601 171.609 0.94986 168.862 0.94986 165.659ZM12.4374 165.853H42.4234V135.868H12.4374V165.853ZM12.4374 124.38H42.4234V94.4913H12.4374V124.38ZM12.4374 83.0038H42.4234V53.0178H12.4374V83.0038ZM12.4374 41.5302H42.4234V11.6417H12.4374V41.5302ZM53.911 165.853H83.7995V135.868H53.911V165.853ZM53.911 124.38H83.7995V94.4913H53.911V124.38ZM53.911 83.0038H83.7995V53.0178H53.911V83.0038ZM53.911 41.5302H83.7995V11.6417H53.911V41.5302ZM95.287 165.853H184.562V53.0178H95.287V83.0038H117.484V94.4913H95.287V124.38H117.484V135.868H95.287V165.853ZM144.355 94.4913V83.0038H155.842V94.4913H144.355ZM144.355 135.868V124.38H155.842V135.868H144.355Z" fill="#1C1B1F"/>
</svg>
